# File created by Blade
# Date/Time:  Tue Apr 07 20:35:32 2015
# Frame Rate: 120.000 fps
#------------------------------------------------------
:FULLY-SPECIFIED
:DEGREES
2391
root -0.822281 32.849310 -3.533546 12.896550 -1.791466 -0.652284
Spine -17.776369 -3.887688 -0.901035
Head 14.295062 -0.391114 -0.280423
LeftShoulder -20.963749 37.354370 22.013529
LeftArm 52.755966 -57.197422 -53.790041
LeftForeArm 10.177729 0.000000 2.096267
LeftHand 1.829738 -0.000000 3.838404
LeftHandThumb1 -26.253704 0.000000 33.147579
RightShoulder -7.591598 5.663259 -32.228767
RightArm 10.465175 10.373657 37.621812
RightForeArm -10.824081 -0.000000 2.152404
RightHand 0.735465 -0.000000 2.400559
RightHandThumb1 -24.326973 -0.000000 -32.862282
LeftUpLeg -7.142211 -6.845081 3.322389
LeftLeg -3.422290 -0.000000 0.000000
LeftFoot -5.185574 9.183187 -17.421660
LeftToeBase -8.334073 -0.000000 0.000000
RightUpLeg -8.150776 -2.708208 1.084960
RightLeg -3.695296 -0.000000 0.000000
RightFoot -5.557732 -6.063247 6.902717
RightToeBase -0.500122 -0.000000 0.000000
2392
root -0.820971 32.849022 -3.532028 12.902809 -1.773043 -0.653786
Spine -17.775571 -3.878421 -0.901397
Head 14.414132 -0.347168 -0.278998
LeftShoulder -20.975946 37.360494 21.991650
LeftArm 52.913338 -57.180861 -54.008619
LeftForeArm 9.749896 -0.000000 2.131839
LeftHand 1.863324 0.000000 3.593645
LeftHandThumb1 -26.253704 0.000000 33.147579
RightShoulder -7.598493 5.662020 -32.233229
RightArm 10.461989 10.477203 37.745102
RightForeArm -10.932874 -0.000000 2.207798
RightHand 0.750174 -0.000000 2.341612
RightHandThumb1 -24.326973 -0.000000 -32.862282
LeftUpLeg -7.143274 -6.863678 3.325065
LeftLeg -3.431826 -0.000000 0.000000
LeftFoot -5.183334 9.189798 -17.411242
LeftToeBase -8.335835 -0.000000 0.000000
RightUpLeg -8.149443 -2.714323 1.085750
RightLeg -3.702992 -0.000000 0.000000
RightFoot -5.550483 -6.069527 6.885727
RightToeBase -0.525512 -0.000000 0.000000
2393
root -0.819055 32.848730 -3.530755 12.921227 -1.756743 -0.654827
Spine -17.790708 -3.878803 -0.899539
Head 14.541742 -0.246959 -0.270583
LeftShoulder -20.968481 37.357267 21.983098
LeftArm 53.018899 -57.188112 -54.192010
LeftForeArm 9.601069 -0.000000 2.158441
LeftHand 1.952791 0.000000 3.051415
LeftHandThumb1 -26.253704 0.000000 33.147579
RightShoulder -7.597920 5.633143 -32.231032
RightArm 10.491882 10.592317 37.882428
RightForeArm -11.072822 0.000000 2.240023
RightHand 0.856312 -0.000000 2.050590
RightHandThumb1 -24.326973 -0.000000 -32.862282
LeftUpLeg -7.162595 -6.873615 3.330080
LeftLeg -3.431355 -0.000000 0.000000
LeftFoot -5.183585 9.175831 -17.423841
LeftToeBase -8.318844 -0.000000 0.000000
RightUpLeg -8.165048 -2.701715 1.082687
RightLeg -3.701535 -0.000000 0.000000
RightFoot -5.555431 -6.091547 6.893484
RightToeBase -0.500187 -0.000000 0.000000
2394
root -0.817457 32.848669 -3.530136 12.939197 -1.745039 -0.663547
Spine -17.802623 -3.869968 -0.891111
Head 14.662217 -0.153845 -0.265722
LeftShoulder -20.947627 37.319687 21.989926
LeftArm 53.030919 -57.118594 -54.258220
LeftForeArm 9.414466 -0.000000 2.129684
LeftHand 2.083315 -0.000000 2.726396
LeftHandThumb1 -26.253704 0.000000 33.147579
RightShoulder -7.594058 5.609496 -32.205076
RightArm 10.531575 10.564690 37.965059
RightForeArm -11.083549 -0.000000 2.261863
RightHand 0.827658 -0.000000 1.954522
RightHandThumb1 -24.326973 -0.000000 -32.862282
LeftUpLeg -7.183079 -6.858034 3.337299
LeftLeg -3.425527 -0.000000 0.000000
LeftFoot -5.169769 9.149538 -17.402206
LeftToeBase -8.400969 -0.000000 0.000000
RightUpLeg -8.179768 -2.677580 1.087182
RightLeg -3.704904 -0.000000 0.000000
RightFoot -5.546166 -6.128081 6.881029
RightToeBase -0.516654 -0.000000 0.000000
2395
root -0.817210 32.848272 -3.529564 12.951914 -1.730505 -0.684130
Spine -17.800056 -3.854699 -0.870243
Head 14.765339 -0.054717 -0.267845
LeftShoulder -20.933516 37.273726 22.003681
LeftArm 53.070946 -57.038638 -54.358089
LeftForeArm 9.283002 0.000000 2.063068
LeftHand 2.117129 0.000000 2.377512
LeftHandThumb1 -26.253704 0.000000 33.147579
RightShoulder -7.591298 5.616741 -32.190235
RightArm 10.550475 10.463862 38.045873
RightForeArm -11.046518 -0.000000 2.241294
RightHand 0.741610 0.000000 2.100275
RightHandThumb1 -24.326973 -0.000000 -32.862282
LeftUpLeg -7.196400 -6.845278 3.355316
LeftLeg -3.422954 -0.000000 0.000000
LeftFoot -5.178537 9.145737 -17.384528
LeftToeBase -8.406058 -0.000000 0.000000
RightUpLeg -8.194092 -2.655287 1.107310
RightLeg -3.696919 -0.000000 0.000000
RightFoot -5.541371 -6.166471 6.870022
RightToeBase -0.559833 -0.000000 0.000000
